<svg xmlns="http://www.w3.org/2000/svg" width="30" height="30" viewBox="0 0 30 30"><path d="M0 0h30v30H0z" fill="none"/><path data-name="Path 19" d="M27.4 11.873a10.574 10.574 0 00-.71-1.774 12.6 12.6 0 00-9.761-7.009l-.444-.089h-1.952L14 3.09a12.225 12.225 0 00-9.758 7.011 10.574 10.574 0 00-.71 1.774 12.1 12.1 0 000 7.1 10.574 10.574 0 00.71 1.774A12.6 12.6 0 0014 27.753l.532.089h1.952l.532-.089a12.6 12.6 0 009.759-7.009 10.574 10.574 0 00.71-1.774 12.859 12.859 0 00-.089-7.1m-2.66-1.769h-4.614a18.042 18.042 0 00-2.129-5.057 10.774 10.774 0 016.743 5.057m-5.678 5.32a16.058 16.058 0 01-.355 3.549h-6.476a19.093 19.093 0 010-7.1H18.7a16.058 16.058 0 01.355 3.549m-.71 5.323a15.027 15.027 0 01-2.662 5.323h-.263a15.027 15.027 0 01-2.662-5.323zM12.67 10.101a15.027 15.027 0 012.662-5.323h.268a15.027 15.027 0 012.659 5.323zm.355-5.057a18.042 18.042 0 00-2.125 5.057H6.283a10.774 10.774 0 016.743-5.057M4.863 15.421a9.651 9.651 0 01.621-3.549h5.057a19.093 19.093 0 000 7.1H5.484a9.651 9.651 0 01-.621-3.549m1.419 5.323H10.9a18.042 18.042 0 002.125 5.055 10.774 10.774 0 01-6.743-5.057m11.711 5.057a18.042 18.042 0 002.129-5.057h4.613a10.774 10.774 0 01-6.742 5.057m2.573-6.831a23.891 23.891 0 00.266-3.549 23.891 23.891 0 00-.266-3.549h4.968a10.814 10.814 0 010 7.1z" fill="#fff"/></svg>