<svg width="107" height="20" viewBox="0 0 107 20" fill="none" xmlns="http://www.w3.org/2000/svg"><path d="M12.489 5.46C7.096 4.907 2.539 0 2.539 0l-.852 4.419a16.559 16.559 0 009.96 5.4l.841-4.359zM10.8 14.183c-5.392-.55-9.952-5.46-9.952-5.46L0 13.146a16.542 16.542 0 009.958 5.4l.842-4.362zm.005.002c5.4.548 9.956 5.462 9.956 5.462l.847-4.423a16.547 16.547 0 00-9.96-5.4l-.843 4.361z" fill="#fff"/><path d="M12.488 5.464c5.4.55 9.956 5.461 9.956 5.461l.848-4.422a16.538 16.538 0 00-9.96-5.4l-.844 4.36zm42.006-.855a7.474 7.474 0 012.275.339c.33.08.65.197.955.348.295.148.58.315.855.5.255.189.487.406.693.648a3.6 3.6 0 01.493.762c.322.618.482 1.309.464 2.007a4.201 4.201 0 01-1.549 3.32 6.49 6.49 0 01-4.3 1.183h-3.485v5.882h-4.524V4.608h8.123zm1.45 4.485a1.6 1.6 0 00-.693-1.276 3.114 3.114 0 00-1.5-.451 5.65 5.65 0 00-.643-.037h-2.174v3.733h2.154c.215 0 .43-.012.643-.036a2.8 2.8 0 001.63-.49 1.408 1.408 0 00.582-1.444m-11.184-4.35h-3.561a3.52 3.52 0 00-.9.082 1.41 1.41 0 00-.612.443l-3.818 6.06h-.382V4.65H30.96v14.99h4.525v-5.61h.462a3.38 3.38 0 01.517 0l3.226 5.11c.159.202.37.355.612.442.295.068.598.096.9.084h3.56l-5.288-7.462 5.284-7.46zm23.059 11.131a.731.731 0 00.248.556.84.84 0 00.6.232c.258-.011.513-.062.755-.15.041-.005.082-.009.123-.01a.565.565 0 01.4.159.51.51 0 01.158.377v1.71a.491.491 0 01-.316.473 9.93 9.93 0 01-2.847.367 2.69 2.69 0 01-1.993-.765 2.544 2.544 0 01-.73-1.858v-5.418h-1.61a.576.576 0 01-.405-.159.477.477 0 01-.17-.377V9.174a.499.499 0 01.17-.379.574.574 0 01.405-.159h1.618v-2.32a.53.53 0 01.158-.387.6.6 0 01.4-.148h2.455c.152-.004.3.05.415.148a.526.526 0 01.157.387v2.32h1.713a.57.57 0 01.4.16.5.5 0 01.17.378V11a.5.5 0 01-.17.377.567.567 0 01-.4.158H67.81l.01 4.34zm9.165-7.393a6.053 6.053 0 014.155 1.521 4.911 4.911 0 011.766 3.835v.638a.519.519 0 01-.167.391.592.592 0 01-.418.157h-7.724c.119.523.423.985.856 1.3a2.813 2.813 0 001.611.578v.01h.2c.286 0 .57-.039.845-.116a3.63 3.63 0 001.564-.714v.01a.467.467 0 01.417-.114c.146.03.28.104.382.211l1.116 1.1a.593.593 0 01.177.432.565.565 0 01-.19.41 7.135 7.135 0 01-4.593 1.47 5.815 5.815 0 01-4.076-1.629 5.257 5.257 0 01-.044-7.866 5.821 5.821 0 014.12-1.627m.1 2.593a2.707 2.707 0 00-2.455 1.546h4.9a2.709 2.709 0 00-2.443-1.546m12.997.266a2.728 2.728 0 00-2.7 2.7 2.578 2.578 0 00.809 1.9 2.631 2.631 0 001.893.788 3.475 3.475 0 001.825-.557.667.667 0 01.416-.094.62.62 0 01.383.178l1.284 1.241c.085.08.14.185.157.3a.348.348 0 01-.088.294 6.388 6.388 0 01-4.28 1.5 5.986 5.986 0 01-4.222-1.628 5.273 5.273 0 010-7.855 6 6 0 014.222-1.627 6.475 6.475 0 014.154 1.333.532.532 0 01.214.4.47.47 0 01-.178.39l-1.258 1.22a.672.672 0 01-.393.168.711.711 0 01-.416-.083 3.43 3.43 0 00-1.825-.568M95.55 5.54a.501.501 0 01.17-.38.566.566 0 01.407-.158h2.452a.567.567 0 01.406.158.5.5 0 01.17.38v4.23a4.203 4.203 0 013.209-1.314 4.424 4.424 0 012.858.977 2.953 2.953 0 011.228 2.363v7.06a.503.503 0 01-.168.377.583.583 0 01-.408.156h-2.453a.567.567 0 01-.4-.157.487.487 0 01-.171-.377V13.12a1.559 1.559 0 00-.549-1.175 1.98 1.98 0 00-2.591 0 1.557 1.557 0 00-.551 1.175v5.735a.5.5 0 01-.17.377.576.576 0 01-.406.157H96.12a.576.576 0 01-.407-.157.512.512 0 01-.158-.377L95.55 5.54z" fill="#fff"/></svg>