<svg xmlns="http://www.w3.org/2000/svg" width="25" height="25" viewBox="0 0 25 25"><path d="M0 0h25v25H0z" fill="none"/><g data-name="Group 4829" fill="rgba(255,255,255,.6)"><path data-name="Path 8253" d="M12.6 2.5c-2.741 0-3.084.011-4.162.061a7.425 7.425 0 00-2.453.469A4.949 4.949 0 004.2 4.2a4.957 4.957 0 00-1.17 1.785 7.412 7.412 0 00-.47 2.453c-.048 1.078-.06 1.42-.06 4.162s.011 3.088.061 4.165a7.425 7.425 0 00.47 2.453A4.949 4.949 0 004.2 21.011a4.957 4.957 0 001.789 1.165 7.411 7.411 0 002.453.47c1.078.049 1.421.061 4.165.061s3.088-.011 4.165-.061a7.425 7.425 0 002.453-.47 5.166 5.166 0 002.955-2.955 7.411 7.411 0 00.47-2.453c.049-1.078.061-1.421.061-4.165s-.011-3.088-.061-4.165a7.425 7.425 0 00-.47-2.453A4.949 4.949 0 0021.011 4.2a4.957 4.957 0 00-1.79-1.17 7.412 7.412 0 00-2.453-.47c-1.077-.048-1.42-.06-4.168-.06zm0 1.82c2.7 0 3.017.011 4.083.059a5.579 5.579 0 011.876.348 3.134 3.134 0 011.162.755 3.127 3.127 0 01.755 1.162 5.578 5.578 0 01.348 1.876c.048 1.065.059 1.385.059 4.083s-.011 3.017-.059 4.083a5.578 5.578 0 01-.348 1.876 3.342 3.342 0 01-1.917 1.917 5.578 5.578 0 01-1.876.348c-1.065.048-1.385.059-4.083.059s-3.017-.011-4.083-.059a5.578 5.578 0 01-1.876-.348 3.126 3.126 0 01-1.162-.755 3.126 3.126 0 01-.755-1.162 5.579 5.579 0 01-.348-1.876C4.331 15.621 4.32 15.3 4.32 12.6s.011-3.017.059-4.083a5.579 5.579 0 01.348-1.876 3.134 3.134 0 01.755-1.162 3.127 3.127 0 011.162-.755 5.579 5.579 0 011.876-.345c1.066-.048 1.386-.059 4.08-.059z"/><path data-name="Path 8254" d="M12.603 15.974a3.371 3.371 0 010-6.742 3.371 3.371 0 110 6.742zm0-8.564a5.193 5.193 0 000 10.386 5.193 5.193 0 000-10.386zm6.7-.094a1.228 1.228 0 11-1.228-1.228 1.227 1.227 0 011.228 1.228"/></g></svg>