<svg xmlns="http://www.w3.org/2000/svg" width="25" height="25" viewBox="0 0 25 25"><path d="M0 0h25v25H0z" fill="none"/><path data-name="Path 8231" d="M22.779 7.348a2.687 2.687 0 00-1.9-1.9C19.206 5 12.497 5 12.497 5s-6.709 0-8.382.448a2.687 2.687 0 00-1.9 1.9 27.909 27.909 0 00-.448 5.164 27.911 27.911 0 00.448 5.164 2.686 2.686 0 001.9 1.9c1.673.448 8.382.448 8.382.448s6.709 0 8.382-.448a2.686 2.686 0 001.9-1.9 27.922 27.922 0 00.448-5.164 27.92 27.92 0 00-.448-5.164m-12.426 8.38V9.292l5.574 3.218z" fill="rgba(255,255,255,.6)"/></svg>